FrauncesItalic-LightOpMin.ufo
<glyph name="comma" format="2">
  <advance width="542"/>
  <unicode hex="002C"/>
  <outline>
    <contour>
      <point x="228" y="24" type="curve" smooth="yes"/>
      <point x="251.32823069794762" y="14.13036393548371"/>
      <point x="259" y="7"/>
      <point x="259" y="-19" type="curve" smooth="yes"/>
      <point x="259.0" y="-112.0"/>
      <point x="206" y="-199"/>
      <point x="71" y="-338" type="curve" smooth="yes"/>
      <point x="62" y="-348"/>
      <point x="54.0" y="-354.0"/>
      <point x="54" y="-364" type="curve" smooth="yes"/>
      <point x="54" y="-376"/>
      <point x="62.0" y="-384.0"/>
      <point x="75" y="-384.0" type="curve" smooth="yes"/>
      <point x="85" y="-384"/>
      <point x="94.0" y="-380.0"/>
      <point x="107" y="-367" type="curve" smooth="yes"/>
      <point x="258.0" y="-213.0"/>
      <point x="324.0" y="-90.0"/>
      <point x="324" y="107" type="curve" smooth="yes"/>
      <point x="324.0" y="190.0"/>
      <point x="302.0" y="222.0"/>
      <point x="270" y="222" type="curve" smooth="yes"/>
      <point x="224" y="222"/>
      <point x="185" y="168"/>
      <point x="185" y="103" type="curve" smooth="yes"/>
      <point x="185" y="61"/>
      <point x="199" y="36"/>
    </contour>
  </outline>
</glyph>
<glyph name="period" format="2">
  <advance width="596"/>
  <unicode hex="002E"/>
  <outline>
    <contour>
      <point x="232" y="-20" type="curve" smooth="yes"/>
      <point x="272" y="-20"/>
      <point x="358" y="106"/>
      <point x="358" y="206" type="curve" smooth="yes"/>
      <point x="358" y="236"/>
      <point x="346" y="252"/>
      <point x="326" y="252" type="curve" smooth="yes"/>
      <point x="284" y="252"/>
      <point x="200" y="128"/>
      <point x="200" y="30" type="curve" smooth="yes"/>
      <point x="200" y="-2"/>
      <point x="214" y="-20"/>
    </contour>
  </outline>
</glyph>
<glyph name="eight" format="2">
  <advance width="1056"/>
  <unicode hex="0038"/>
  <outline>
    <contour>
      <point x="524.0" y="-34.0" type="curve" smooth="yes"/>
      <point x="744.0" y="-34.0"/>
      <point x="998.0" y="146.0"/>
      <point x="998.0" y="404.0" type="curve" smooth="yes"/>
      <point x="998.0" y="486.0"/>
      <point x="930.0" y="574.0"/>
      <point x="758.0" y="640.0" type="curve" smooth="yes"/>
      <point x="574.0" y="702.0"/>
      <point x="516.0" y="794.0"/>
      <point x="516.0" y="890.0" type="curve" smooth="yes"/>
      <point x="516.0" y="1038.0"/>
      <point x="652.0" y="1180.0"/>
      <point x="864.0" y="1180.0" type="curve" smooth="yes"/>
      <point x="974.0" y="1180.0"/>
      <point x="1046.0" y="1112.0"/>
      <point x="1046.0" y="992.0" type="curve" smooth="yes"/>
      <point x="1046.0" y="802.0"/>
      <point x="966.0" y="684.0"/>
      <point x="782.0" y="634.0" type="curve"/>
      <point x="764.0" y="590.0" type="line"/>
      <point x="992.0" y="666.0"/>
      <point x="1176.0" y="848.0"/>
      <point x="1176.0" y="1048.0" type="curve" smooth="yes"/>
      <point x="1176.0" y="1182.0"/>
      <point x="1102.0" y="1290.0"/>
      <point x="962.0" y="1290.0" type="curve" smooth="yes"/>
      <point x="648.0" y="1290.0"/>
      <point x="408.0" y="1012.0"/>
      <point x="408.0" y="782.0" type="curve" smooth="yes"/>
      <point x="408.0" y="678.0"/>
      <point x="496.0" y="592.0"/>
      <point x="662.0" y="530.0" type="curve" smooth="yes"/>
      <point x="826.0" y="470.0"/>
      <point x="884.0" y="408.0"/>
      <point x="884.0" y="330.0" type="curve" smooth="yes"/>
      <point x="884.0" y="170.0"/>
      <point x="780.0" y="64.0"/>
      <point x="604.0" y="64.0" type="curve" smooth="yes"/>
      <point x="486.0" y="64.0"/>
      <point x="428.0" y="142.0"/>
      <point x="430.0" y="260.0" type="curve" smooth="yes"/>
      <point x="432.0" y="390.0"/>
      <point x="500.0" y="532.0"/>
      <point x="638.0" y="568.0" type="curve"/>
      <point x="674.0" y="624.0" type="line"/>
      <point x="416.0" y="550.0"/>
      <point x="286.0" y="388.0"/>
      <point x="284.0" y="194.0" type="curve" smooth="yes"/>
      <point x="282.0" y="58.0"/>
      <point x="352.0" y="-34.0"/>
    </contour>
  </outline>
</glyph>
<glyph name="G" format="2">
  <advance width="1324"/>
  <unicode hex="0047"/>
  <anchor x="1026.0" y="1566.0" name="center"/>
  <outline>
    <contour>
      <point x="934.0" y="1428.0" type="curve" smooth="yes"/>
      <point x="482.0" y="1428.0"/>
      <point x="110.0" y="978.0"/>
      <point x="110.0" y="496.0" type="curve" smooth="yes"/>
      <point x="110.0" y="180.0"/>
      <point x="292.0" y="-34.0"/>
      <point x="574.0" y="-34.0" type="curve" smooth="yes"/>
      <point x="792.0" y="-34.0"/>
      <point x="886.0" y="40.0"/>
      <point x="920.0" y="40.0" type="curve" smooth="yes"/>
      <point x="948.0" y="40.0"/>
      <point x="916.0" y="-34.0"/>
      <point x="952.0" y="-34.0" type="curve" smooth="yes"/>
      <point x="976.0" y="-34.0"/>
      <point x="992.0" y="-24.0"/>
      <point x="1002.0" y="12.0" type="curve" smooth="yes"/>
      <point x="1140.0" y="478.0" type="line" smooth="yes"/>
      <point x="1148.0" y="502.0"/>
      <point x="1170.0" y="522.0"/>
      <point x="1218.0" y="528.0" type="curve" smooth="yes"/>
      <point x="1256.0" y="534.0" type="line" smooth="yes"/>
      <point x="1290.0" y="540.0"/>
      <point x="1304.0" y="552.0"/>
      <point x="1306.0" y="566.0" type="curve" smooth="yes"/>
      <point x="1308.0" y="588.0"/>
      <point x="1300.0" y="594.0"/>
      <point x="1274.0" y="594.0" type="curve" smooth="yes"/>
      <point x="954.0" y="594.0" type="line" smooth="yes"/>
      <point x="930.0" y="594.0"/>
      <point x="914.0" y="588.0"/>
      <point x="914.0" y="568.0" type="curve" smooth="yes"/>
      <point x="914.0" y="550.0"/>
      <point x="924.0" y="536.0"/>
      <point x="948.0" y="534.0" type="curve" smooth="yes"/>
      <point x="1014.0" y="528.0" type="line" smooth="yes"/>
      <point x="1054.0" y="524.0"/>
      <point x="1066.0" y="494.0"/>
      <point x="1052.0" y="434.0" type="curve" smooth="yes"/>
      <point x="992.0" y="222.0" type="line" smooth="yes"/>
      <point x="954.0" y="88.0"/>
      <point x="814.0" y="24.0"/>
      <point x="608.0" y="24.0" type="curve" smooth="yes"/>
      <point x="336.0" y="24.0"/>
      <point x="194.0" y="206.0"/>
      <point x="194.0" y="490.0" type="curve" smooth="yes"/>
      <point x="194.0" y="958.0"/>
      <point x="542.0" y="1374.0"/>
      <point x="940.0" y="1374.0" type="curve" smooth="yes"/>
      <point x="1086.0" y="1374.0"/>
      <point x="1196.0" y="1326.0"/>
      <point x="1264.0" y="1162.0" type="curve" smooth="yes"/>
      <point x="1288.0" y="1104.0" type="line" smooth="yes"/>
      <point x="1292.0" y="1094.0"/>
      <point x="1306.0" y="1076.0"/>
      <point x="1320.0" y="1076.0" type="curve" smooth="yes"/>
      <point x="1336.0" y="1076.0"/>
      <point x="1352.0" y="1086.0"/>
      <point x="1348.0" y="1110.0" type="curve" smooth="yes"/>
      <point x="1300.0" y="1376.0" type="line" smooth="yes"/>
      <point x="1294.0" y="1412.0"/>
      <point x="1280.0" y="1426.0"/>
      <point x="1258.0" y="1426.0" type="curve" smooth="yes"/>
      <point x="1232.0" y="1426.0"/>
      <point x="1218.0" y="1384.0"/>
      <point x="1184.0" y="1384.0" type="curve" smooth="yes"/>
      <point x="1158.0" y="1384.0"/>
      <point x="1052.0" y="1428.0"/>
    </contour>
  </outline>
</glyph>
<glyph name="J" format="2">
  <advance width="674"/>
  <unicode hex="004A"/>
  <outline>
    <contour>
      <point x="766.0" y="1282.0" type="curve" smooth="yes"/>
      <point x="776.0" y="1306.0"/>
      <point x="796.0" y="1342.0"/>
      <point x="846.0" y="1348.0" type="curve" smooth="yes"/>
      <point x="896.0" y="1356.0" type="line" smooth="yes"/>
      <point x="924.0" y="1358.0"/>
      <point x="936.0" y="1350.0"/>
      <point x="952.0" y="1374.0" type="curve" smooth="yes"/>
      <point x="962.0" y="1392.0"/>
      <point x="940.0" y="1400.0"/>
      <point x="904.0" y="1400.0" type="curve" smooth="yes"/>
      <point x="570.0" y="1400.0" type="line" smooth="yes"/>
      <point x="526.0" y="1400.0"/>
      <point x="512.0" y="1394.0"/>
      <point x="500.0" y="1376.0" type="curve" smooth="yes"/>
      <point x="484.0" y="1354.0"/>
      <point x="498.0" y="1346.0"/>
      <point x="538.0" y="1344.0" type="curve" smooth="yes"/>
      <point x="586.0" y="1334.0" type="line" smooth="yes"/>
      <point x="624.0" y="1328.0"/>
      <point x="622.0" y="1314.0"/>
      <point x="616.0" y="1280.0" type="curve" smooth="yes"/>
      <point x="552.0" y="910.0"/>
      <point x="464.0" y="470.0"/>
      <point x="326.0" y="88.0" type="curve" smooth="yes"/>
      <point x="268.0" y="-46.0"/>
      <point x="290.0" y="-116.0"/>
      <point x="290.0" y="-126.0" type="curve" smooth="yes"/>
      <point x="290.0" y="-174.0"/>
      <point x="268.0" y="-196.0"/>
      <point x="238.0" y="-196.0" type="curve" smooth="yes"/>
      <point x="214.0" y="-196.0"/>
      <point x="194.0" y="-120.0"/>
      <point x="166.0" y="-120.0" type="curve" smooth="yes"/>
      <point x="82.0" y="-120.0"/>
      <point x="38.0" y="-168.0"/>
      <point x="38.0" y="-228.0" type="curve" smooth="yes"/>
      <point x="38.0" y="-276.0"/>
      <point x="82.0" y="-330.0"/>
      <point x="156.0" y="-330.0" type="curve" smooth="yes"/>
      <point x="284.0" y="-330.0"/>
      <point x="406.0" y="-98.0"/>
      <point x="428.0" y="34.0" type="curve" smooth="yes"/>
      <point x="478.0" y="320.0"/>
      <point x="636.0" y="892.0"/>
    </contour>
  </outline>
</glyph>
<glyph name="P" format="2">
  <advance width="1226"/>
  <unicode hex="0050"/>
  <outline>
    <contour>
      <point x="1362.0" y="980.0" type="curve" smooth="yes"/>
      <point x="1362.0" y="1242.0"/>
      <point x="1190.0" y="1400.0"/>
      <point x="918.0" y="1400.0" type="curve" smooth="yes"/>
      <point x="558.0" y="1400.0" type="line" smooth="yes"/>
      <point x="504.0" y="1400.0"/>
      <point x="474.0" y="1398.0"/>
      <point x="474.0" y="1366.0" type="curve" smooth="yes"/>
      <point x="474.0" y="1354.0"/>
      <point x="494.0" y="1350.0"/>
      <point x="528.0" y="1346.0" type="curve" smooth="yes"/>
      <point x="560.0" y="1338.0" type="line" smooth="yes"/>
      <point x="600.0" y="1332.0"/>
      <point x="620.0" y="1306.0"/>
      <point x="620.0" y="1272.0" type="curve" smooth="yes"/>
      <point x="620.0" y="1266.0"/>
      <point x="616.0" y="1258.0"/>
      <point x="618.0" y="1260.0" type="curve"/>
      <point x="556.0" y="878.0"/>
      <point x="454.0" y="518.0"/>
      <point x="320.0" y="156.0" type="curve" smooth="yes"/>
      <point x="302.0" y="112.0"/>
      <point x="284.0" y="76.0"/>
      <point x="242.0" y="66.0" type="curve" smooth="yes"/>
      <point x="200.0" y="58.0" type="line" smooth="yes"/>
      <point x="144.0" y="44.0"/>
      <point x="116.0" y="32.0"/>
      <point x="116.0" y="16.0" type="curve" smooth="yes"/>
      <point x="116.0" y="4.0"/>
      <point x="140.0" y="0.0"/>
      <point x="180.0" y="0.0" type="curve" smooth="yes"/>
      <point x="526.0" y="0.0" type="line" smooth="yes"/>
      <point x="580.0" y="0.0"/>
      <point x="616.0" y="18.0"/>
      <point x="616.0" y="38.0" type="curve" smooth="yes"/>
      <point x="616.0" y="46.0"/>
      <point x="596.0" y="46.0"/>
      <point x="562.0" y="56.0" type="curve" smooth="yes"/>
      <point x="532.0" y="64.0" type="line" smooth="yes"/>
      <point x="480.0" y="78.0"/>
      <point x="450.0" y="100.0"/>
      <point x="450.0" y="132.0" type="curve" smooth="yes"/>
      <point x="450.0" y="138.0"/>
      <point x="454.0" y="148.0"/>
      <point x="460.0" y="176.0" type="curve" smooth="yes"/>
      <point x="508.0" y="460.0"/>
      <point x="644.0" y="992.0"/>
      <point x="708.0" y="1148.0" type="curve" smooth="yes"/>
      <point x="756.0" y="1262.0"/>
      <point x="806.0" y="1332.0"/>
      <point x="908.0" y="1332.0" type="curve" smooth="yes"/>
      <point x="1096.0" y="1332.0"/>
      <point x="1224.0" y="1176.0"/>
      <point x="1224.0" y="960.0" type="curve" smooth="yes"/>
      <point x="1224.0" y="712.0"/>
      <point x="992.0" y="536.0"/>
      <point x="656.0" y="536.0" type="curve" smooth="yes"/>
      <point x="562.0" y="536.0"/>
      <point x="560.0" y="558.0"/>
      <point x="540.0" y="566.0" type="curve"/>
      <point x="492.0" y="504.0" type="line"/>
      <point x="560.0" y="466.0"/>
      <point x="616.0" y="468.0"/>
      <point x="704.0" y="468.0" type="curve" smooth="yes"/>
      <point x="1068.0" y="468.0"/>
      <point x="1362.0" y="676.0"/>
    </contour>
  </outline>
</glyph>
<glyph name="Q" format="2">
  <advance width="1550"/>
  <unicode hex="0051"/>
  <outline>
    <contour>
      <point x="800.0" y="114.0" type="curve" smooth="yes"/>
      <point x="800.0" y="-74.0"/>
      <point x="924.0" y="-246.0"/>
      <point x="1072.0" y="-246.0" type="curve" smooth="yes"/>
      <point x="1120.0" y="-246.0"/>
      <point x="1164.0" y="-202.0"/>
      <point x="1198.0" y="-146.0" type="curve" smooth="yes"/>
      <point x="1206.0" y="-132.0"/>
      <point x="1206.0" y="-122.0"/>
      <point x="1206.0" y="-112.0" type="curve" smooth="yes"/>
      <point x="1206.0" y="-100.0"/>
      <point x="1200.0" y="-90.0"/>
      <point x="1182.0" y="-90.0" type="curve" smooth="yes"/>
      <point x="1148.0" y="-90.0"/>
      <point x="1122.0" y="-98.0"/>
      <point x="1086.0" y="-98.0" type="curve" smooth="yes"/>
      <point x="976.0" y="-98.0"/>
      <point x="892.0" y="56.0"/>
      <point x="892.0" y="228.0" type="curve" smooth="yes"/>
      <point x="892.0" y="266.0"/>
      <point x="886.0" y="292.0"/>
      <point x="886.0" y="308.0" type="curve" smooth="yes"/>
      <point x="886.0" y="328.0"/>
      <point x="880.0" y="348.0"/>
      <point x="864.0" y="348.0" type="curve" smooth="yes"/>
      <point x="828.0" y="348.0"/>
      <point x="800.0" y="262.0"/>
    </contour>
    <contour>
      <point x="956.0" y="1430.0" type="curve" smooth="yes"/>
      <point x="586.6287128712871" y="1430.0"/>
      <point x="273.87948013520656" y="1147.603115617663"/>
      <point x="158.0" y="766.0" type="curve" smooth="yes"/>
      <point x="12.293676782696906" y="282.9735586494884"/>
      <point x="220.4390243902439" y="-30.0"/>
      <point x="558.0" y="-30.0" type="curve" smooth="yes"/>
      <point x="904.7722772277227" y="-30.0"/>
      <point x="1232.113579580565" y="206.4375606792259"/>
      <point x="1354.0" y="676.0" type="curve" smooth="yes"/>
      <point x="1463.7997614180174" y="1099.2281712839945"/>
      <point x="1272.458536585366" y="1430.0"/>
    </contour>
    <contour>
      <point x="586.0" y="32.0" type="curve" smooth="yes"/>
      <point x="273.79428571428576" y="32.0"/>
      <point x="106.2443516776033" y="260.91076534379425"/>
      <point x="238.0" y="752.0" type="curve" smooth="yes"/>
      <point x="337.9071828381832" y="1129.6491511283325"/>
      <point x="626.8728323699422" y="1368.0"/>
      <point x="928.0" y="1368.0" type="curve" smooth="yes"/>
      <point x="1208.7542857142857" y="1368.0"/>
      <point x="1387.7225621467676" y="1093.0167991867902"/>
      <point x="1274.0" y="690.0" type="curve" smooth="yes"/>
      <point x="1140.168649219589" y="216.5965651498899"/>
      <point x="846.4855491329479" y="32.0"/>
    </contour>
  </outline>
</glyph>
<glyph name="b" format="2">
  <advance width="1029"/>
  <unicode hex="0062"/>
  <outline>
    <contour>
      <point x="405" y="949" type="line" smooth="yes"/>
      <point x="480" y="1214"/>
      <point x="638" y="1346"/>
      <point x="776" y="1346" type="curve" smooth="yes"/>
      <point x="854" y="1346"/>
      <point x="903" y="1310"/>
      <point x="956" y="1310" type="curve" smooth="yes"/>
      <point x="1000" y="1310"/>
      <point x="1024" y="1328"/>
      <point x="1024" y="1354" type="curve" smooth="yes"/>
      <point x="1024" y="1390"/>
      <point x="992" y="1418"/>
      <point x="908" y="1418" type="curve" smooth="yes"/>
      <point x="620" y="1418"/>
      <point x="424" y="1254"/>
      <point x="337" y="945" type="curve" smooth="yes"/>
      <point x="94" y="86" type="line" smooth="yes"/>
      <point x="84" y="52"/>
      <point x="82" y="38"/>
      <point x="82" y="24" type="curve" smooth="yes"/>
      <point x="82" y="8"/>
      <point x="92" y="-4"/>
      <point x="106" y="-4" type="curve" smooth="yes"/>
      <point x="120" y="-4"/>
      <point x="132" y="6"/>
      <point x="138" y="22" type="curve" smooth="yes"/>
      <point x="204" y="201" type="line"/>
      <point x="172" y="212" type="line"/>
      <point x="172" y="64"/>
      <point x="235" y="-15"/>
      <point x="394" y="-15" type="curve" smooth="yes"/>
      <point x="652" y="-15"/>
      <point x="958" y="262"/>
      <point x="958" y="692" type="curve" smooth="yes"/>
      <point x="958" y="828"/>
      <point x="892" y="912"/>
      <point x="766" y="912" type="curve" smooth="yes"/>
      <point x="541" y="912"/>
      <point x="319" y="685"/>
      <point x="228" y="446" type="curve"/>
      <point x="264" y="446" type="line"/>
    </contour>
    <contour>
      <point x="729" y="855" type="curve" smooth="yes"/>
      <point x="822" y="855"/>
      <point x="884" y="785"/>
      <point x="884" y="658" type="curve" smooth="yes"/>
      <point x="884" y="290"/>
      <point x="611" y="41"/>
      <point x="404" y="41" type="curve" smooth="yes"/>
      <point x="290" y="41"/>
      <point x="226" y="93"/>
      <point x="226" y="217" type="curve" smooth="yes"/>
      <point x="226" y="477"/>
      <point x="508" y="855"/>
    </contour>
  </outline>
</glyph>
<glyph name="c" format="2">
  <advance width="825"/>
  <unicode hex="0063"/>
  <anchor x="625" y="1102.0" name="center"/>
  <outline>
    <contour>
      <point x="565" y="862" type="curve" smooth="yes"/>
      <point x="650" y="862"/>
      <point x="702" y="815"/>
      <point x="702" y="749" type="curve" smooth="yes"/>
      <point x="702" y="727"/>
      <point x="693" y="703"/>
      <point x="693" y="686" type="curve" smooth="yes"/>
      <point x="693" y="659"/>
      <point x="710" y="640"/>
      <point x="736" y="640" type="curve" smooth="yes"/>
      <point x="771" y="640"/>
      <point x="801" y="674"/>
      <point x="801" y="732" type="curve" smooth="yes"/>
      <point x="801" y="830"/>
      <point x="733" y="915"/>
      <point x="600" y="915" type="curve" smooth="yes"/>
      <point x="317" y="915"/>
      <point x="90" y="610"/>
      <point x="90" y="272" type="curve" smooth="yes"/>
      <point x="90" y="102"/>
      <point x="174" y="-15"/>
      <point x="336" y="-15" type="curve" smooth="yes"/>
      <point x="575" y="-15"/>
      <point x="720" y="163"/>
      <point x="720" y="284" type="curve" smooth="yes"/>
      <point x="720" y="297"/>
      <point x="713" y="306"/>
      <point x="702" y="306" type="curve" smooth="yes"/>
      <point x="688" y="306"/>
      <point x="673" y="294"/>
      <point x="667" y="272" type="curve" smooth="yes"/>
      <point x="625" y="129"/>
      <point x="508" y="46"/>
      <point x="371" y="46" type="curve" smooth="yes"/>
      <point x="256" y="46"/>
      <point x="172" y="129"/>
      <point x="172" y="294" type="curve" smooth="yes"/>
      <point x="172" y="602"/>
      <point x="355" y="862"/>
    </contour>
  </outline>
</glyph>
<glyph name="d" format="2">
  <advance width="1042"/>
  <unicode hex="0064"/>
  <outline>
    <contour>
      <point x="907" y="836" type="line"/>
      <point x="874" y="883"/>
      <point x="818" y="915"/>
      <point x="730" y="915" type="curve" smooth="yes"/>
      <point x="410" y="915"/>
      <point x="78" y="590"/>
      <point x="78" y="190" type="curve" smooth="yes"/>
      <point x="78" y="40"/>
      <point x="148" y="-15"/>
      <point x="246" y="-15" type="curve" smooth="yes"/>
      <point x="401" y="-15"/>
      <point x="598" y="140"/>
      <point x="753" y="456" type="curve"/>
      <point x="735" y="458" type="line"/>
      <point x="671" y="272"/>
      <point x="646" y="189"/>
      <point x="646" y="110" type="curve" smooth="yes"/>
      <point x="646" y="30"/>
      <point x="679" y="-14"/>
      <point x="747" y="-14" type="curve" smooth="yes"/>
      <point x="861" y="-14"/>
      <point x="966" y="84"/>
      <point x="966" y="137" type="curve" smooth="yes"/>
      <point x="966" y="152"/>
      <point x="960" y="167"/>
      <point x="944" y="167" type="curve" smooth="yes"/>
      <point x="931" y="167"/>
      <point x="923" y="159"/>
      <point x="917" y="147" type="curve" smooth="yes"/>
      <point x="889" y="94"/>
      <point x="844" y="65"/>
      <point x="788" y="65" type="curve" smooth="yes"/>
      <point x="754" y="65"/>
      <point x="727" y="95"/>
      <point x="727" y="140" type="curve" smooth="yes"/>
      <point x="727" y="196"/>
      <point x="735" y="232"/>
      <point x="757" y="306" type="curve" smooth="yes"/>
      <point x="1013" y="1156" type="line" smooth="yes"/>
      <point x="1020" y="1179"/>
      <point x="1019" y="1199"/>
      <point x="1021" y="1211" type="curve" smooth="yes"/>
      <point x="1034" y="1301"/>
      <point x="1104" y="1345"/>
      <point x="1168" y="1345" type="curve" smooth="yes"/>
      <point x="1222" y="1345"/>
      <point x="1251" y="1314"/>
      <point x="1290" y="1314" type="curve" smooth="yes"/>
      <point x="1318" y="1314"/>
      <point x="1336" y="1334"/>
      <point x="1336" y="1355" type="curve" smooth="yes"/>
      <point x="1336" y="1388"/>
      <point x="1296" y="1416"/>
      <point x="1231" y="1416" type="curve" smooth="yes"/>
      <point x="1090" y="1416"/>
      <point x="1006" y="1341"/>
      <point x="965" y="1210" type="curve" smooth="yes"/>
      <point x="775" y="608" type="line" smooth="yes"/>
      <point x="697" y="361"/>
      <point x="437" y="55"/>
      <point x="278" y="55" type="curve" smooth="yes"/>
      <point x="204" y="55"/>
      <point x="152" y="101"/>
      <point x="152" y="203" type="curve" smooth="yes"/>
      <point x="152" y="541"/>
      <point x="435" y="859"/>
      <point x="696" y="859" type="curve" smooth="yes"/>
      <point x="776" y="859"/>
      <point x="825" y="843"/>
      <point x="869" y="795" type="curve"/>
    </contour>
  </outline>
</glyph>
<glyph name="f" format="2">
  <advance width="548"/>
  <unicode hex="0066"/>
  <outline>
    <contour>
      <point x="332" y="822" type="line"/>
      <point x="592" y="822" type="line" smooth="yes"/>
      <point x="626" y="822"/>
      <point x="652" y="834"/>
      <point x="652" y="856" type="curve" smooth="yes"/>
      <point x="652" y="866"/>
      <point x="644" y="872"/>
      <point x="630" y="872" type="curve" smooth="yes"/>
      <point x="346" y="872" type="line"/>
    </contour>
    <contour>
      <point x="134" y="848" type="curve" smooth="yes"/>
      <point x="134" y="836"/>
      <point x="142" y="826"/>
      <point x="164" y="826" type="curve" smooth="yes"/>
      <point x="268" y="826"/>
      <point x="295" y="788"/>
      <point x="274" y="714" type="curve" smooth="yes"/>
      <point x="26" y="-168" type="line" smooth="yes"/>
      <point x="6" y="-241"/>
      <point x="2" y="-262"/>
      <point x="2" y="-292" type="curve" smooth="yes"/>
      <point x="2" y="-322"/>
      <point x="20" y="-338"/>
      <point x="46" y="-338" type="curve" smooth="yes"/>
      <point x="84" y="-338"/>
      <point x="118" y="-312"/>
      <point x="118" y="-280" type="curve" smooth="yes"/>
      <point x="118" y="-252"/>
      <point x="98" y="-238"/>
      <point x="98" y="-204" type="curve" smooth="yes"/>
      <point x="98" y="-174"/>
      <point x="102" y="-150"/>
      <point x="110" y="-122" type="curve" smooth="yes"/>
      <point x="404" y="942" type="line" smooth="yes"/>
      <point x="423" y="1012"/>
      <point x="440" y="1067"/>
      <point x="440" y="1123" type="curve" smooth="yes"/>
      <point x="440.0" y="1244.737556561086"/>
      <point x="519.4593023255813" y="1351.0"/>
      <point x="613.0" y="1351.0" type="curve" smooth="yes"/>
      <point x="680" y="1351"/>
      <point x="712" y="1311"/>
      <point x="761" y="1311" type="curve" smooth="yes"/>
      <point x="797" y="1311"/>
      <point x="815" y="1329"/>
      <point x="815" y="1354" type="curve" smooth="yes"/>
      <point x="815" y="1387"/>
      <point x="783" y="1417"/>
      <point x="688.0" y="1417.0" type="curve" smooth="yes"/>
      <point x="521" y="1417"/>
      <point x="423.0" y="1327.0"/>
      <point x="377" y="1145" type="curve" smooth="yes"/>
      <point x="308" y="872" type="line"/>
      <point x="168" y="872" type="line" smooth="yes"/>
      <point x="148" y="872"/>
      <point x="134" y="862"/>
    </contour>
  </outline>
</glyph>
<glyph name="h" format="2">
  <advance width="1051"/>
  <unicode hex="0068"/>
  <outline>
    <contour>
      <point x="242" y="345" type="curve" smooth="yes"/>
      <point x="201" y="234"/>
      <point x="178" y="168"/>
      <point x="178" y="122" type="curve" smooth="yes"/>
      <point x="178" y="80"/>
      <point x="190" y="66"/>
      <point x="190" y="38" type="curve" smooth="yes"/>
      <point x="190" y="2"/>
      <point x="154" y="-20"/>
      <point x="118" y="-20" type="curve" smooth="yes"/>
      <point x="92" y="-20"/>
      <point x="76" y="-10"/>
      <point x="76" y="18" type="curve" smooth="yes"/>
      <point x="76" y="40"/>
      <point x="84" y="66"/>
      <point x="106" y="148" type="curve" smooth="yes"/>
      <point x="332" y="964" type="line" smooth="yes"/>
      <point x="425" y="1302"/>
      <point x="656" y="1422"/>
      <point x="934" y="1422" type="curve" smooth="yes"/>
      <point x="1006" y="1422"/>
      <point x="1034" y="1392"/>
      <point x="1034" y="1364" type="curve" smooth="yes"/>
      <point x="1034" y="1330"/>
      <point x="1012" y="1314"/>
      <point x="968" y="1314" type="curve" smooth="yes"/>
      <point x="924" y="1314"/>
      <point x="864" y="1348"/>
      <point x="790" y="1348" type="curve" smooth="yes"/>
      <point x="623" y="1348"/>
      <point x="470" y="1227"/>
      <point x="406" y="974" type="curve" smooth="yes"/>
      <point x="345" y="744"/>
      <point x="277" y="539"/>
      <point x="244" y="417" type="curve"/>
      <point x="224" y="419" type="line"/>
      <point x="364" y="738"/>
      <point x="607" y="914"/>
      <point x="804" y="914" type="curve" smooth="yes"/>
      <point x="872" y="914"/>
      <point x="907" y="876"/>
      <point x="907" y="820" type="curve" smooth="yes"/>
      <point x="907" y="760"/>
      <point x="893" y="714"/>
      <point x="860" y="620" type="curve" smooth="yes"/>
      <point x="718" y="222" type="line" smooth="yes"/>
      <point x="707" y="190"/>
      <point x="701" y="152"/>
      <point x="701" y="127" type="curve" smooth="yes"/>
      <point x="701" y="87"/>
      <point x="725" y="67"/>
      <point x="757" y="67" type="curve" smooth="yes"/>
      <point x="791" y="67"/>
      <point x="817" y="79"/>
      <point x="856" y="112" type="curve" smooth="yes"/>
      <point x="876" y="136"/>
      <point x="888" y="150"/>
      <point x="904" y="150" type="curve" smooth="yes"/>
      <point x="914" y="150"/>
      <point x="922" y="142"/>
      <point x="922" y="134" type="curve" smooth="yes"/>
      <point x="922" y="76"/>
      <point x="822" y="-20"/>
      <point x="700" y="-20" type="curve" smooth="yes"/>
      <point x="644" y="-20"/>
      <point x="614" y="16"/>
      <point x="614" y="74" type="curve" smooth="yes"/>
      <point x="614" y="102"/>
      <point x="623" y="134"/>
      <point x="646" y="198" type="curve" smooth="yes"/>
      <point x="806" y="642" type="line" smooth="yes"/>
      <point x="820" y="681"/>
      <point x="828" y="718"/>
      <point x="828" y="754" type="curve" smooth="yes"/>
      <point x="828" y="810"/>
      <point x="808" y="847"/>
      <point x="745" y="847" type="curve" smooth="yes"/>
      <point x="601" y="847"/>
      <point x="359" y="661"/>
    </contour>
  </outline>
</glyph>
<glyph name="l" format="2">
  <advance width="566"/>
  <unicode hex="006C"/>
  <outline>
    <contour>
      <point x="712" y="1416" type="curve" smooth="yes"/>
      <point x="570" y="1416.0"/>
      <point x="474" y="1335"/>
      <point x="405" y="1112" type="curve" smooth="yes"/>
      <point x="165" y="335" type="line" smooth="yes"/>
      <point x="130" y="222"/>
      <point x="114.0" y="154"/>
      <point x="114" y="89" type="curve" smooth="yes"/>
      <point x="114" y="27"/>
      <point x="146" y="-15"/>
      <point x="210" y="-15" type="curve" smooth="yes"/>
      <point x="330.0" y="-15.0"/>
      <point x="449.0" y="96"/>
      <point x="449" y="152" type="curve" smooth="yes"/>
      <point x="449.0" y="165"/>
      <point x="441" y="176.0"/>
      <point x="428" y="176" type="curve" smooth="yes"/>
      <point x="418.0" y="176.0"/>
      <point x="412" y="172"/>
      <point x="403" y="160" type="curve" smooth="yes"/>
      <point x="357" y="96"/>
      <point x="302.0" y="64.0"/>
      <point x="254" y="64" type="curve" smooth="yes"/>
      <point x="227" y="64"/>
      <point x="199.0" y="91.0"/>
      <point x="199" y="145" type="curve" smooth="yes"/>
      <point x="199.0" y="204"/>
      <point x="212" y="263"/>
      <point x="235" y="338" type="curve" smooth="yes"/>
      <point x="448" y="1022" type="line" smooth="yes"/>
      <point x="468.59257047553814" y="1088.1282544848266"/>
      <point x="477.0" y="1118.0"/>
      <point x="487" y="1170" type="curve" smooth="yes"/>
      <point x="505" y="1270.0"/>
      <point x="568.0" y="1336.0"/>
      <point x="635" y="1336.0" type="curve" smooth="yes"/>
      <point x="696.0" y="1336.0"/>
      <point x="715.7652173913043" y="1304.0"/>
      <point x="764" y="1304" type="curve" smooth="yes"/>
      <point x="805.0833333333334" y="1304.0"/>
      <point x="822.0" y="1329.0"/>
      <point x="822" y="1356" type="curve" smooth="yes"/>
      <point x="822.0" y="1388.0"/>
      <point x="785.7" y="1416.0"/>
    </contour>
  </outline>
</glyph>
<glyph name="n" format="2">
  <advance width="1120"/>
  <unicode hex="006E"/>
  <outline>
    <contour>
      <point x="142" y="736" type="curve" smooth="yes"/>
      <point x="158" y="730"/>
      <point x="178" y="742"/>
      <point x="188" y="762" type="curve" smooth="yes"/>
      <point x="230" y="820"/>
      <point x="272" y="846"/>
      <point x="310" y="846" type="curve" smooth="yes"/>
      <point x="352" y="846"/>
      <point x="376" y="824"/>
      <point x="376" y="780" type="curve" smooth="yes"/>
      <point x="376" y="738"/>
      <point x="364" y="696"/>
      <point x="348" y="650" type="curve" smooth="yes"/>
      <point x="168" y="140" type="line" smooth="yes"/>
      <point x="150" y="90"/>
      <point x="142" y="56"/>
      <point x="142" y="26" type="curve" smooth="yes"/>
      <point x="142" y="-2"/>
      <point x="154" y="-16"/>
      <point x="178" y="-16" type="curve" smooth="yes"/>
      <point x="220" y="-16"/>
      <point x="258" y="6"/>
      <point x="258" y="42" type="curve" smooth="yes"/>
      <point x="258" y="74"/>
      <point x="244" y="106"/>
      <point x="244" y="124" type="curve" smooth="yes"/>
      <point x="244" y="146"/>
      <point x="250" y="170"/>
      <point x="290" y="298" type="curve" smooth="yes"/>
      <point x="397" y="633"/>
      <point x="662" y="846"/>
      <point x="810" y="846" type="curve" smooth="yes"/>
      <point x="872" y="846"/>
      <point x="898" y="808"/>
      <point x="898" y="750" type="curve" smooth="yes"/>
      <point x="898" y="720"/>
      <point x="890" y="673"/>
      <point x="872" y="626" type="curve" smooth="yes"/>
      <point x="734" y="256" type="line" smooth="yes"/>
      <point x="713" y="200"/>
      <point x="684" y="140"/>
      <point x="684" y="80" type="curve" smooth="yes"/>
      <point x="684" y="20"/>
      <point x="710" y="-16"/>
      <point x="774" y="-16" type="curve" smooth="yes"/>
      <point x="866" y="-16"/>
      <point x="956" y="42"/>
      <point x="990" y="114" type="curve" smooth="yes"/>
      <point x="996" y="130"/>
      <point x="998" y="150"/>
      <point x="986" y="154" type="curve" smooth="yes"/>
      <point x="966" y="158"/>
      <point x="958" y="150"/>
      <point x="940" y="132" type="curve" smooth="yes"/>
      <point x="894" y="86"/>
      <point x="862" y="68"/>
      <point x="832" y="68" type="curve" smooth="yes"/>
      <point x="790" y="68"/>
      <point x="770" y="90"/>
      <point x="770" y="136" type="curve" smooth="yes"/>
      <point x="770" y="162"/>
      <point x="777" y="193"/>
      <point x="794" y="240" type="curve" smooth="yes"/>
      <point x="930" y="622" type="line" smooth="yes"/>
      <point x="961" y="710"/>
      <point x="976" y="760"/>
      <point x="976" y="812" type="curve" smooth="yes"/>
      <point x="976" y="874"/>
      <point x="944" y="914"/>
      <point x="868" y="914" type="curve" smooth="yes"/>
      <point x="689" y="914"/>
      <point x="424" y="767"/>
      <point x="258" y="318" type="curve"/>
      <point x="290" y="314" type="line"/>
      <point x="374" y="598"/>
      <point x="452" y="736"/>
      <point x="452" y="828" type="curve" smooth="yes"/>
      <point x="452" y="886"/>
      <point x="422" y="914"/>
      <point x="374" y="914" type="curve" smooth="yes"/>
      <point x="266" y="914"/>
      <point x="182" y="856"/>
      <point x="138" y="784" type="curve" smooth="yes"/>
      <point x="124" y="764"/>
      <point x="130" y="740"/>
    </contour>
  </outline>
</glyph>
<glyph name="q" format="2">
  <advance width="953"/>
  <unicode hex="0071"/>
  <outline>
    <contour>
      <point x="146" y="207" type="curve" smooth="yes"/>
      <point x="146.0" y="534.500765696784"/>
      <point x="433.0" y="861.0"/>
      <point x="715" y="861" type="curve" smooth="yes"/>
      <point x="779" y="861"/>
      <point x="816" y="840"/>
      <point x="816" y="791" type="curve" smooth="yes"/>
      <point x="816.0" y="537.6557823129251"/>
      <point x="480.0" y="55.0"/>
      <point x="272" y="55" type="curve" smooth="yes"/>
      <point x="195" y="55"/>
      <point x="146" y="102"/>
    </contour>
    <contour>
      <point x="758" y="521" type="line"/>
      <point x="507" y="-338" type="line" smooth="yes"/>
      <point x="488" y="-402"/>
      <point x="447" y="-430"/>
      <point x="337" y="-439" type="curve" smooth="yes"/>
      <point x="295" y="-442"/>
      <point x="284" y="-454"/>
      <point x="284" y="-464" type="curve" smooth="yes"/>
      <point x="284" y="-484"/>
      <point x="313" y="-494"/>
      <point x="343" y="-493" type="curve" smooth="yes"/>
      <point x="683" y="-482" type="line" smooth="yes"/>
      <point x="708" y="-481"/>
      <point x="720" y="-469"/>
      <point x="720" y="-452" type="curve" smooth="yes"/>
      <point x="720" y="-439"/>
      <point x="708" y="-429"/>
      <point x="684" y="-428" type="curve" smooth="yes"/>
      <point x="601" y="-425"/>
      <point x="576" y="-410"/>
      <point x="576" y="-377" type="curve" smooth="yes"/>
      <point x="576" y="-366"/>
      <point x="578" y="-356"/>
      <point x="584" y="-334" type="curve" smooth="yes"/>
      <point x="879" y="712" type="line" smooth="yes"/>
      <point x="893" y="762"/>
      <point x="922" y="790"/>
      <point x="922" y="827" type="curve" smooth="yes"/>
      <point x="922" y="881"/>
      <point x="862" y="915"/>
      <point x="754" y="915" type="curve" smooth="yes"/>
      <point x="402.0" y="915.0"/>
      <point x="68.0" y="544"/>
      <point x="68" y="176" type="curve" smooth="yes"/>
      <point x="68.0" y="47.0"/>
      <point x="137.0" y="-15.0"/>
      <point x="243" y="-15" type="curve" smooth="yes"/>
      <point x="415" y="-15.0"/>
      <point x="617" y="155"/>
      <point x="781" y="512" type="curve"/>
    </contour>
  </outline>
</glyph>
<glyph name="r" format="2">
  <advance width="868"/>
  <unicode hex="0072"/>
  <outline>
    <contour>
      <point x="150" y="734" type="curve" smooth="yes"/>
      <point x="168" y="734"/>
      <point x="184" y="750"/>
      <point x="202" y="780" type="curve" smooth="yes"/>
      <point x="224" y="810"/>
      <point x="256" y="846"/>
      <point x="316" y="846" type="curve" smooth="yes"/>
      <point x="350" y="846"/>
      <point x="376" y="818"/>
      <point x="376" y="784" type="curve" smooth="yes"/>
      <point x="376" y="740"/>
      <point x="367" y="708"/>
      <point x="354" y="668" type="curve" smooth="yes"/>
      <point x="200" y="174" type="line" smooth="yes"/>
      <point x="184" y="122"/>
      <point x="172" y="74"/>
      <point x="172" y="52" type="curve" smooth="yes"/>
      <point x="172" y="14"/>
      <point x="190" y="-16"/>
      <point x="226" y="-16" type="curve" smooth="yes"/>
      <point x="262" y="-16"/>
      <point x="302" y="8"/>
      <point x="302" y="36" type="curve" smooth="yes"/>
      <point x="302" y="56"/>
      <point x="262" y="88"/>
      <point x="262" y="120" type="curve" smooth="yes"/>
      <point x="262.0" y="155.0"/>
      <point x="274" y="203"/>
      <point x="308" y="310" type="curve" smooth="yes"/>
      <point x="406" y="620"/>
      <point x="594" y="860.0"/>
      <point x="707" y="860" type="curve" smooth="yes"/>
      <point x="754.0" y="860.0"/>
      <point x="779.0" y="837.7142857142857"/>
      <point x="779" y="808" type="curve" smooth="yes"/>
      <point x="779.0" y="769.9753086419753"/>
      <point x="760.0" y="742.7764705882353"/>
      <point x="760" y="720" type="curve" smooth="yes"/>
      <point x="760" y="691"/>
      <point x="778" y="676"/>
      <point x="799" y="676" type="curve" smooth="yes"/>
      <point x="840.0" y="676.0"/>
      <point x="862.0" y="712.0"/>
      <point x="862" y="784" type="curve" smooth="yes"/>
      <point x="862.0" y="861.2463768115942"/>
      <point x="813.0" y="914.0"/>
      <point x="728" y="914.0" type="curve" smooth="yes"/>
      <point x="561" y="914.0"/>
      <point x="368" y="633"/>
      <point x="278" y="382" type="curve"/>
      <point x="318" y="377" type="line"/>
      <point x="318.0" y="467.0"/>
      <point x="452.0" y="710.5017241379311"/>
      <point x="452" y="830" type="curve" smooth="yes"/>
      <point x="452" y="878"/>
      <point x="418" y="914"/>
      <point x="360" y="914.0" type="curve" smooth="yes"/>
      <point x="252" y="914"/>
      <point x="130" y="820"/>
      <point x="130" y="758" type="curve" smooth="yes"/>
      <point x="130" y="742"/>
      <point x="138" y="734"/>
    </contour>
  </outline>
</glyph>
<glyph name="t" format="2">
  <advance width="683"/>
  <unicode hex="0074"/>
  <outline>
    <contour>
      <point x="302" y="818" type="line" smooth="yes"/>
      <point x="318" y="814"/>
      <point x="326" y="802"/>
      <point x="326" y="784" type="curve" smooth="yes"/>
      <point x="326" y="766"/>
      <point x="319" y="750"/>
      <point x="310" y="722" type="curve" smooth="yes"/>
      <point x="173" y="277" type="line" smooth="yes"/>
      <point x="147" y="194"/>
      <point x="129" y="148"/>
      <point x="129" y="100" type="curve" smooth="yes"/>
      <point x="129" y="24"/>
      <point x="163" y="-15"/>
      <point x="242" y="-15" type="curve" smooth="yes"/>
      <point x="376" y="-15"/>
      <point x="543" y="91"/>
      <point x="543" y="164" type="curve" smooth="yes"/>
      <point x="543" y="176"/>
      <point x="537" y="184"/>
      <point x="525" y="184" type="curve" smooth="yes"/>
      <point x="513" y="184"/>
      <point x="509" y="182"/>
      <point x="493" y="164" type="curve" smooth="yes"/>
      <point x="430" y="93"/>
      <point x="371" y="64"/>
      <point x="294" y="64" type="curve" smooth="yes"/>
      <point x="237" y="64"/>
      <point x="211" y="92"/>
      <point x="211" y="148" type="curve" smooth="yes"/>
      <point x="211" y="190"/>
      <point x="225" y="226"/>
      <point x="243" y="282" type="curve" smooth="yes"/>
      <point x="470" y="990" type="line" smooth="yes"/>
      <point x="478" y="1014"/>
      <point x="484" y="1032"/>
      <point x="484" y="1046" type="curve" smooth="yes"/>
      <point x="484" y="1064"/>
      <point x="478" y="1072"/>
      <point x="464" y="1072" type="curve" smooth="yes"/>
      <point x="452" y="1072"/>
      <point x="442" y="1067"/>
      <point x="430" y="1048" type="curve" smooth="yes"/>
      <point x="346" y="916" type="line" smooth="yes"/>
      <point x="337" y="902"/>
      <point x="328" y="894"/>
      <point x="308" y="894" type="curve" smooth="yes"/>
      <point x="208" y="894" type="line" smooth="yes"/>
      <point x="190" y="894"/>
      <point x="174" y="882"/>
      <point x="174" y="870" type="curve" smooth="yes"/>
      <point x="174" y="854"/>
      <point x="186" y="844"/>
      <point x="204" y="840" type="curve" smooth="yes"/>
    </contour>
    <contour>
      <point x="336" y="836" type="line"/>
      <point x="652" y="836" type="line" smooth="yes"/>
      <point x="688" y="836"/>
      <point x="712" y="848"/>
      <point x="712" y="872" type="curve" smooth="yes"/>
      <point x="712" y="884"/>
      <point x="700" y="894"/>
      <point x="682" y="894" type="curve" smooth="yes"/>
      <point x="354" y="894" type="line"/>
    </contour>
  </outline>
</glyph>
<glyph name="u" format="2">
  <advance width="1120"/>
  <unicode hex="0075"/>
  <anchor x="502" y="1016.0" name="center"/>
  <outline>
    <contour>
      <point x="990" y="162" type="curve" smooth="yes"/>
      <point x="974" y="168"/>
      <point x="954" y="156"/>
      <point x="944" y="136" type="curve" smooth="yes"/>
      <point x="902" y="78"/>
      <point x="860" y="52"/>
      <point x="822" y="52" type="curve" smooth="yes"/>
      <point x="780" y="52"/>
      <point x="756" y="74"/>
      <point x="756" y="118" type="curve" smooth="yes"/>
      <point x="756" y="160"/>
      <point x="768" y="202"/>
      <point x="784" y="248" type="curve" smooth="yes"/>
      <point x="964" y="758" type="line" smooth="yes"/>
      <point x="982" y="808"/>
      <point x="990" y="842"/>
      <point x="990" y="872" type="curve" smooth="yes"/>
      <point x="990" y="900"/>
      <point x="978" y="914"/>
      <point x="954" y="914" type="curve" smooth="yes"/>
      <point x="912" y="914"/>
      <point x="874" y="892"/>
      <point x="874" y="856" type="curve" smooth="yes"/>
      <point x="874" y="824"/>
      <point x="888" y="792"/>
      <point x="888" y="774" type="curve" smooth="yes"/>
      <point x="888" y="752"/>
      <point x="882" y="728"/>
      <point x="842" y="600" type="curve" smooth="yes"/>
      <point x="735" y="265"/>
      <point x="470" y="52"/>
      <point x="322" y="52" type="curve" smooth="yes"/>
      <point x="260" y="52"/>
      <point x="234" y="90"/>
      <point x="234" y="148" type="curve" smooth="yes"/>
      <point x="234" y="178"/>
      <point x="242" y="225"/>
      <point x="260" y="272" type="curve" smooth="yes"/>
      <point x="398" y="642" type="line" smooth="yes"/>
      <point x="419" y="698"/>
      <point x="448" y="758"/>
      <point x="448" y="818" type="curve" smooth="yes"/>
      <point x="448" y="878"/>
      <point x="422" y="914"/>
      <point x="358" y="914" type="curve" smooth="yes"/>
      <point x="266" y="914"/>
      <point x="176" y="856"/>
      <point x="142" y="784" type="curve" smooth="yes"/>
      <point x="136" y="768"/>
      <point x="134" y="748"/>
      <point x="146" y="744" type="curve" smooth="yes"/>
      <point x="166" y="740"/>
      <point x="174" y="748"/>
      <point x="192" y="766" type="curve" smooth="yes"/>
      <point x="238" y="812"/>
      <point x="270" y="830"/>
      <point x="300" y="830" type="curve" smooth="yes"/>
      <point x="342" y="830"/>
      <point x="362" y="808"/>
      <point x="362" y="762" type="curve" smooth="yes"/>
      <point x="362" y="736"/>
      <point x="355" y="705"/>
      <point x="338" y="658" type="curve" smooth="yes"/>
      <point x="202" y="276" type="line" smooth="yes"/>
      <point x="171" y="188"/>
      <point x="156" y="138"/>
      <point x="156" y="86" type="curve" smooth="yes"/>
      <point x="156" y="24"/>
      <point x="188" y="-16"/>
      <point x="264" y="-16" type="curve" smooth="yes"/>
      <point x="443" y="-16"/>
      <point x="708" y="131"/>
      <point x="874" y="580" type="curve"/>
      <point x="842" y="584" type="line"/>
      <point x="758" y="300"/>
      <point x="680" y="162"/>
      <point x="680" y="70" type="curve" smooth="yes"/>
      <point x="680" y="12"/>
      <point x="710" y="-16"/>
      <point x="758" y="-16" type="curve" smooth="yes"/>
      <point x="866" y="-16"/>
      <point x="950" y="42"/>
      <point x="994" y="114" type="curve" smooth="yes"/>
      <point x="1008" y="134"/>
      <point x="1002" y="158"/>
    </contour>
  </outline>
</glyph>
<glyph name="y" format="2">
  <advance width="952"/>
  <unicode hex="0079"/>
  <outline>
    <contour>
      <point x="560" y="368" type="curve" smooth="yes"/>
      <point x="364" y="-98" type="line"/>
      <point x="404" y="-96" type="line"/>
      <point x="406.12188544195146" y="173.47945112783748"/>
      <point x="409.29190895517405" y="667.1034391054843"/>
      <point x="404" y="774" type="curve" smooth="yes"/>
      <point x="399" y="872"/>
      <point x="363" y="917"/>
      <point x="314" y="917" type="curve" smooth="yes"/>
      <point x="238" y="917"/>
      <point x="125" y="816"/>
      <point x="125" y="757" type="curve" smooth="yes"/>
      <point x="125" y="740"/>
      <point x="134" y="729"/>
      <point x="151" y="729" type="curve" smooth="yes"/>
      <point x="186" y="728"/>
      <point x="228" y="840"/>
      <point x="275" y="840" type="curve" smooth="yes"/>
      <point x="308" y="840"/>
      <point x="333" y="802"/>
      <point x="335" y="721" type="curve" smooth="yes"/>
      <point x="340.9977077849575" y="504.08290177736967"/>
      <point x="339.0" y="169.0"/>
      <point x="335" y="-9" type="curve" smooth="yes"/>
      <point x="328.7443891457443" y="-283.20427577820845"/>
      <point x="177.96052631578948" y="-425.0"/>
      <point x="27" y="-425" type="curve" smooth="yes"/>
      <point x="-58" y="-425"/>
      <point x="-104" y="-378"/>
      <point x="-146" y="-378" type="curve" smooth="yes"/>
      <point x="-179.56666666666666" y="-378.0"/>
      <point x="-199.0" y="-396.6585365853658"/>
      <point x="-199" y="-429" type="curve" smooth="yes"/>
      <point x="-199.0" y="-469.320987654321"/>
      <point x="-152.14285714285714" y="-500.0"/>
      <point x="-76" y="-500" type="curve" smooth="yes"/>
      <point x="153.81404958677686" y="-500.0"/>
      <point x="283.9892616180121" y="-409.13568703132563"/>
      <point x="414" y="-101" type="curve" smooth="yes"/>
      <point x="758" y="713"/>
      <point x="832.9867240185825" y="817.4876944252566"/>
      <point x="975" y="832" type="curve" smooth="yes"/>
      <point x="1024.0753154066447" y="837.007685245576"/>
      <point x="1044" y="856"/>
      <point x="1044" y="881" type="curve" smooth="yes"/>
      <point x="1044" y="906"/>
      <point x="1026.0" y="923.0"/>
      <point x="991" y="923.0" type="curve" smooth="yes"/>
      <point x="851.0517647058823" y="923.0"/>
      <point x="723.5117366383033" y="756.7574962931089"/>
    </contour>
  </outline>
</glyph>
<glyph name="h.alt" format="2">
  <advance width="1042"/>
  <outline>
    <contour>
      <point x="470" y="1150" type="curve" smooth="yes"/>
      <point x="337" y="707"/>
      <point x="273" y="519"/>
      <point x="246" y="409" type="curve"/>
      <point x="218" y="411" type="line"/>
      <point x="355" y="726"/>
      <point x="605" y="913"/>
      <point x="810" y="913" type="curve" smooth="yes"/>
      <point x="874" y="913"/>
      <point x="908" y="875"/>
      <point x="908" y="816" type="curve" smooth="yes"/>
      <point x="908" y="759"/>
      <point x="894" y="715"/>
      <point x="862" y="624" type="curve" smooth="yes"/>
      <point x="720" y="222" type="line" smooth="yes"/>
      <point x="708" y="189"/>
      <point x="702" y="150"/>
      <point x="702" y="124" type="curve" smooth="yes"/>
      <point x="702" y="87"/>
      <point x="726" y="66"/>
      <point x="758" y="66" type="curve" smooth="yes"/>
      <point x="792" y="66"/>
      <point x="819" y="77"/>
      <point x="858" y="112" type="curve" smooth="yes"/>
      <point x="878" y="136"/>
      <point x="892" y="150"/>
      <point x="908" y="150" type="curve" smooth="yes"/>
      <point x="918" y="150"/>
      <point x="926" y="142"/>
      <point x="926" y="134" type="curve" smooth="yes"/>
      <point x="926" y="74"/>
      <point x="824" y="-22"/>
      <point x="702" y="-22" type="curve" smooth="yes"/>
      <point x="644" y="-22"/>
      <point x="614" y="14"/>
      <point x="614" y="72" type="curve" smooth="yes"/>
      <point x="614" y="102"/>
      <point x="623" y="134"/>
      <point x="646" y="198" type="curve" smooth="yes"/>
      <point x="808" y="646" type="line" smooth="yes"/>
      <point x="823" y="687"/>
      <point x="830" y="724"/>
      <point x="830" y="760" type="curve" smooth="yes"/>
      <point x="830" y="814"/>
      <point x="803" y="847"/>
      <point x="754" y="847" type="curve" smooth="yes"/>
      <point x="607" y="847"/>
      <point x="363" y="675"/>
      <point x="238" y="337" type="curve" smooth="yes"/>
      <point x="198" y="229"/>
      <point x="174" y="166"/>
      <point x="174" y="122" type="curve" smooth="yes"/>
      <point x="174" y="78"/>
      <point x="186" y="64"/>
      <point x="186" y="36" type="curve" smooth="yes"/>
      <point x="186" y="0"/>
      <point x="150" y="-22"/>
      <point x="114" y="-22" type="curve" smooth="yes"/>
      <point x="88" y="-22"/>
      <point x="72" y="-12"/>
      <point x="72" y="16" type="curve" smooth="yes"/>
      <point x="72" y="38"/>
      <point x="76" y="64"/>
      <point x="102" y="148" type="curve" smooth="yes"/>
      <point x="412" y="1152" type="line" smooth="yes"/>
      <point x="426" y="1198"/>
      <point x="428" y="1226"/>
      <point x="428" y="1272" type="curve" smooth="yes"/>
      <point x="428" y="1316"/>
      <point x="398" y="1340"/>
      <point x="362" y="1340" type="curve" smooth="yes"/>
      <point x="326" y="1340"/>
      <point x="302" y="1328"/>
      <point x="274" y="1302" type="curve" smooth="yes"/>
      <point x="254" y="1280"/>
      <point x="236" y="1252"/>
      <point x="214" y="1252" type="curve" smooth="yes"/>
      <point x="202" y="1252"/>
      <point x="194" y="1258"/>
      <point x="194" y="1276" type="curve" smooth="yes"/>
      <point x="194" y="1316"/>
      <point x="310" y="1420"/>
      <point x="430" y="1420" type="curve" smooth="yes"/>
      <point x="476" y="1420"/>
      <point x="504" y="1378"/>
      <point x="504" y="1322" type="curve" smooth="yes"/>
      <point x="504" y="1266"/>
      <point x="494" y="1226"/>
    </contour>
  </outline>
</glyph>
